<?xml version="1.0" encoding="UTF-8"?>
<svg id="Layer_2" data-name="Layer 2" xmlns="http://www.w3.org/2000/svg" viewBox="0 0 449.49 62.67">
  <defs>
    <style>
      .cls-1 {
        fill: #fff;
      }

      .cls-2 {
        fill: #36f;
      }
    </style>
  </defs>
  <g id="Layer_1-2" data-name="Layer 1">
    <g>
      <path class="cls-1" d="m125.99,8.22l-7.25-7.25c-1.13-1.13-2.95-1.13-4.08,0l-27.9,27.9c-1.13,1.13-2.95,1.13-4.08,0l-6.44-6.44c-1.13-1.13-1.13-2.95,0-4.08l6.71-6.71c1.13-1.13,1.13-2.95,0-4.08l-6.71-6.71c-1.13-1.13-2.95-1.13-4.08,0l-6.71,6.71c-1.13,1.13-2.95,1.13-4.08,0l-6.71-6.71c-1.13-1.13-2.95-1.13-4.08,0l-6.71,6.71c-1.13,1.13-1.13,2.95,0,4.08l6.71,6.71c1.13,1.13,1.13,2.95,0,4.08l-6.71,6.71c-1.13,1.13-2.95,1.13-4.08,0L11.64,1c-1.13-1.13-2.95-1.13-4.08,0L.85,7.71c-1.13,1.13-1.13,2.95,0,4.08l28.14,28.14c1.13,1.13,1.13,2.95,0,4.08h0c-1.13,1.13-1.13,2.95,0,4.08l6.71,6.71c1.13,1.13,2.95,1.13,4.08,0h0c1.13-1.13,2.95-1.13,4.08,0l6.55,6.55c1.13,1.13,2.95,1.13,4.08,0l6.67-6.67c1.13-1.13,2.95-1.13,4.08,0l7.14,7.14c1.13,1.13,2.95,1.13,4.08,0l6.75-6.74c1.13-1.13,2.95-1.13,4.08,0l.21.21c1.13,1.13,2.95,1.13,4.08,0l6.71-6.71c1.13-1.13,1.13-2.95,0-4.08l-.21-.21c-1.13-1.13-1.13-2.95,0-4.08l27.9-27.9c1.13-1.13,1.13-2.95,0-4.08ZM61.09,45.92l-6.44-6.44c-1.13-1.13-1.13-2.95,0-4.08l6.71-6.71c1.13-1.13,2.95-1.13,4.08,0l6.44,6.44c1.13,1.13,1.13,2.95,0,4.08l-6.71,6.71c-1.13,1.13-2.95,1.13-4.08,0Z"/>
    </g>
  </g>
</svg>